<svg width="33" height="33" viewBox="0 0 33 33" fill="none" xmlns="http://www.w3.org/2000/svg">
<circle cx="16.5" cy="16.5" r="16.5" fill="#D1F2F0"/>
<path d="M13.4329 8.37693L20.5617 15.4846C20.6463 15.5692 20.7064 15.6609 20.742 15.7596C20.7775 15.8583 20.795 15.9641 20.7944 16.0769C20.7944 16.1898 20.7769 16.2955 20.742 16.3942C20.707 16.493 20.6469 16.5846 20.5617 16.6692L13.4329 23.7981C13.2354 23.9955 12.9887 24.0942 12.6925 24.0942C12.3963 24.0942 12.1425 23.9885 11.931 23.7769C11.7194 23.5654 11.6137 23.3186 11.6137 23.0365C11.6137 22.7545 11.7194 22.5077 11.931 22.2962L18.1502 16.0769L11.931 9.8577C11.7335 9.66026 11.6348 9.41685 11.6348 9.12747C11.6348 8.83809 11.7406 8.5879 11.9521 8.37693C12.1636 8.16539 12.4104 8.05962 12.6925 8.05962C12.9745 8.05962 13.2213 8.16539 13.4329 8.37693Z" fill="#00BF63"/>
</svg>
