<svg width="37" height="36" viewBox="0 0 37 36" fill="none" xmlns="http://www.w3.org/2000/svg">
<path d="M22.3794 17.9673C24.1479 17.9673 25.5816 16.5551 25.5816 14.8131C25.5816 13.071 24.1479 11.6588 22.3794 11.6588C20.6109 11.6588 19.1772 13.071 19.1772 14.8131C19.1772 16.5551 20.6109 17.9673 22.3794 17.9673Z" fill="#F0D154"/>
<path d="M7.27637 32.0745C7.27637 32.0745 10.3677 34.3583 12.9777 35.7747C13.2888 35.9424 13.642 36.0193 13.9959 35.9965C14.3499 35.9736 14.6898 35.8518 14.976 35.6455L15.3279 35.3928C15.4237 35.3242 15.5044 35.2372 15.5652 35.1371C15.6259 35.037 15.6655 34.9258 15.6815 34.8102C15.6975 34.6947 15.6896 34.5771 15.6583 34.4646C15.627 34.3522 15.5729 34.2471 15.4993 34.1557C14.3596 32.7357 13.4369 31.1591 12.7605 29.4761L7.27637 32.0745Z" fill="#3C4D68"/>
<path d="M7.47754 17.5063C7.47754 17.5063 11.2364 10.1828 14.2962 5.28676C14.3923 5.13356 14.5247 5.00566 14.6822 4.91409C14.8396 4.82251 15.0173 4.77 15.1999 4.76107C15.3825 4.75214 15.5645 4.78706 15.7304 4.86283C15.8962 4.9386 16.0409 5.05294 16.152 5.19601L30.3436 23.4592C30.4539 23.601 30.5279 23.7668 30.5593 23.9428C30.5907 24.1187 30.5786 24.2994 30.524 24.4698C30.4694 24.6401 30.3739 24.7949 30.2457 24.9212C30.1174 25.0474 29.9602 25.1414 29.7872 25.195C26.7993 26.122 20.0204 28.0894 14.868 28.5743C14.868 28.5743 10.277 27.0878 7.47754 17.5063Z" fill="#EAEAEA"/>
<path d="M0.0356183 26.9297C0.0982084 27.3825 0.228351 27.8238 0.421833 28.2391C0.837643 29.155 1.91085 31.2056 3.51242 32.0662C5.60583 33.1909 10.0464 32.2065 14.8673 28.5745C14.8673 28.5745 9.72851 23.0679 7.47685 17.5065C7.47685 17.5065 3.69593 20.2107 1.1617 23.1905C0.790663 23.6219 0.500324 24.1147 0.304198 24.646C0.0338575 25.3759 -0.0581532 26.1583 0.0356183 26.9297Z" fill="#F47676"/>
<path d="M13.4478 6.67421L27.8943 25.7648C28.2534 25.66 28.5906 25.5595 28.9032 25.4652L13.9975 5.76794C13.8159 6.06336 13.6327 6.36545 13.4478 6.67421Z" fill="white"/>
<path d="M3.6807 26.8804C3.57316 26.8806 3.46848 26.8463 3.38248 26.7827C3.29648 26.7191 3.23384 26.6296 3.20401 26.5278C3.17418 26.4261 3.17878 26.3175 3.21713 26.2185C3.25548 26.1195 3.32549 26.0356 3.41658 25.9793L4.61485 25.2375C4.72603 25.17 4.85983 25.1484 4.98708 25.1775C5.11434 25.2067 5.22475 25.2842 5.29428 25.3931C5.3638 25.5021 5.38681 25.6337 5.35828 25.7593C5.32975 25.8849 5.25201 25.9943 5.14197 26.0637L3.94371 26.8055C3.86499 26.8545 3.77379 26.8804 3.6807 26.8804Z" fill="white"/>
<path d="M4.58187 28.2942C4.47436 28.2943 4.36973 28.26 4.28378 28.1964C4.19782 28.1328 4.1352 28.0434 4.10538 27.9417C4.07556 27.8399 4.08014 27.7314 4.11846 27.6324C4.15677 27.5335 4.22672 27.4495 4.31775 27.3932L5.51589 26.6516C5.62708 26.584 5.76087 26.5625 5.88813 26.5916C6.01539 26.6207 6.1258 26.6982 6.19532 26.8072C6.26485 26.9161 6.28785 27.0478 6.25933 27.1733C6.2308 27.2989 6.15305 27.4083 6.04302 27.4777L4.84488 28.2193C4.76618 28.2683 4.67497 28.2943 4.58187 28.2942Z" fill="white"/>
<path d="M5.48343 29.7066C5.37589 29.7067 5.27121 29.6724 5.18522 29.6088C5.09922 29.5452 5.03657 29.4558 5.00674 29.354C4.97691 29.2522 4.98152 29.1437 5.01987 29.0447C5.05822 28.9457 5.12822 28.8617 5.21931 28.8054L6.41758 28.0637C6.52877 27.9961 6.66256 27.9746 6.78982 28.0037C6.91707 28.0328 7.02749 28.1103 7.09701 28.2193C7.16654 28.3283 7.18954 28.4599 7.16101 28.5855C7.13249 28.711 7.05474 28.8204 6.94471 28.8898L5.74694 29.6316C5.66809 29.6806 5.57671 29.7066 5.48343 29.7066Z" fill="white"/>
<path d="M24.0467 3.02388C23.9593 3.02382 23.8736 3.001 23.798 2.95774C23.7225 2.91448 23.66 2.85232 23.6167 2.77757C23.5735 2.70281 23.5511 2.61812 23.5518 2.53208C23.5525 2.44604 23.5763 2.36171 23.6207 2.28765L24.8492 0.239716C24.916 0.128304 25.0251 0.0476071 25.1523 0.015377C25.2795 -0.0168532 25.4145 0.00202371 25.5277 0.0678547C25.6408 0.133686 25.7227 0.241079 25.7554 0.366408C25.7881 0.491737 25.769 0.624737 25.7021 0.736148L24.4736 2.78408C24.4298 2.85719 24.3674 2.91777 24.2925 2.95983C24.2176 3.00188 24.1329 3.02396 24.0467 3.02388Z" fill="#F0D154"/>
<path d="M34.1129 17.936C33.9868 17.9361 33.8655 17.8888 33.7735 17.8039C33.6816 17.7189 33.6261 17.6026 33.6182 17.4787C33.6103 17.3547 33.6506 17.2325 33.7311 17.1369C33.8115 17.0413 33.9259 16.9794 34.051 16.964L36.4467 16.6653C36.5765 16.6502 36.7071 16.6863 36.81 16.7656C36.9129 16.8449 36.9798 16.9611 36.9962 17.0888C37.0125 17.2166 36.9769 17.3455 36.8972 17.4475C36.8175 17.5495 36.7001 17.6163 36.5706 17.6334L34.1749 17.9321C34.1543 17.9347 34.1336 17.936 34.1129 17.936Z" fill="#F0D154"/>
<path d="M32.4898 8.10357C32.3878 8.10364 32.2882 8.07268 32.2048 8.01493C32.1213 7.95718 32.058 7.87546 32.0234 7.78092C31.9889 7.68638 31.9848 7.58364 32.0117 7.48674C32.0387 7.38984 32.0954 7.30349 32.174 7.23951L34.036 5.72472C34.1373 5.64231 34.2676 5.6029 34.3984 5.61518C34.5292 5.62745 34.6497 5.69039 34.7333 5.79016C34.817 5.88992 34.857 6.01834 34.8445 6.14716C34.8321 6.27597 34.7682 6.39464 34.6669 6.47705L32.8049 7.99184C32.7163 8.06415 32.6048 8.10368 32.4898 8.10357Z" fill="#F0D154"/>
</svg>
